<svg xmlns="http://www.w3.org/2000/svg" width="109" height="40" viewBox="0 0 109 40" fill="none"><g id="Swap this"><path id="Fill 1" fill-rule="evenodd" clip-rule="evenodd" d="M100.076 14.8601C103.211 14.8601 105.84 17.0484 106.543 19.9809L108.008 19.7094C107.176 16.0828 103.939 13.3676 100.076 13.3676C99.8468 13.3676 99.6218 13.3835 99.398 13.4021C97.3498 5.69441 90.3333 0 82.0151 0C74.0934 0 67.3563 5.16631 64.9624 12.3154C64.3147 12.2009 63.6497 12.1378 62.9701 12.1378C57.0711 12.1378 52.2001 16.6323 51.5762 22.3868L55.1308 21.8123C55.9591 18.2346 59.1555 15.5578 62.9701 15.5578C63.3854 15.5578 63.7905 15.5993 64.1891 15.6603C65.029 15.7891 65.8259 16.0465 66.5603 16.4154C66.6837 15.232 66.9425 14.0891 67.3159 12.9987C69.4119 6.87264 75.2072 2.45593 82.0151 2.45593C89.1784 2.45593 95.2219 7.34583 97.0125 13.9723C97.1439 14.4589 97.2522 14.9546 97.3364 15.4586C98.0704 15.1243 98.8747 14.9232 99.7206 14.8781C99.8392 14.872 99.956 14.8601 100.076 14.8601Z" fill="#236092"></path><path id="Fill 5" fill-rule="evenodd" clip-rule="evenodd" d="M32.0789 32.1236C32.1245 31.8335 32.1972 31.5467 32.296 31.2642C32.3952 30.9814 32.536 30.7334 32.7187 30.5189C32.9021 30.3053 33.1301 30.133 33.4044 30.0027C33.6787 29.873 34.0058 29.8084 34.3868 29.8084C34.7831 29.8084 35.1142 29.877 35.3812 30.0143C35.6469 30.1522 35.8683 30.3282 36.0437 30.5418C36.2183 30.7563 36.3481 31.0006 36.4323 31.2752C36.5154 31.5507 36.5652 31.8335 36.5807 32.1236H32.0789ZM34.3412 26.9882C33.6099 26.9882 32.8978 27.1261 32.2045 27.4012C31.5115 27.6758 30.8982 28.081 30.3655 28.6161C29.8318 29.1512 29.4019 29.8197 29.0747 30.6223C28.7466 31.4244 28.583 32.3607 28.583 33.4309C28.583 34.3169 28.7086 35.1425 28.9601 35.9067C29.2115 36.6709 29.5998 37.3321 30.1256 37.8898C30.651 38.4478 31.3139 38.8868 32.1136 39.208C32.913 39.529 33.8535 39.6891 34.9354 39.6891C35.3617 39.6891 35.7883 39.6663 36.2152 39.6208C36.6415 39.5744 37.0414 39.5171 37.4145 39.4484C37.7879 39.3801 38.1263 39.2999 38.4313 39.208C38.7357 39.1159 38.9799 39.0247 39.1626 38.9328L38.7056 36.1587C38.3246 36.3274 37.8335 36.4684 37.2317 36.5831C36.6297 36.6978 36.0167 36.7548 35.3921 36.7548C34.4176 36.7548 33.6406 36.5483 33.0617 36.1361C32.4827 35.723 32.1553 35.1653 32.0789 34.4621H39.8021C39.8176 34.2788 39.8328 34.0686 39.8483 33.8318C39.8632 33.5951 39.8708 33.3772 39.8708 33.1783C39.8708 31.1455 39.3761 29.6061 38.3857 28.5587C37.3953 27.512 36.0474 26.9882 34.3412 26.9882Z" fill="#606162"></path><path id="Fill 6" fill-rule="evenodd" clip-rule="evenodd" d="M49.5479 33.7073C49.2654 33.3952 48.8811 33.1036 48.3939 32.8342C47.9062 32.5645 47.2892 32.2911 46.5427 32.0132C46.1772 31.875 45.8765 31.7478 45.6405 31.6322C45.4037 31.5168 45.2176 31.4098 45.0807 31.3097C44.9436 31.2105 44.8518 31.1074 44.8062 31.0006C44.7609 30.8939 44.7375 30.7712 44.7375 30.6336C44.7375 30.0375 45.2708 29.7394 46.3372 29.7394C46.9158 29.7394 47.4376 29.7931 47.9025 29.8996C48.3669 30.007 48.7974 30.1293 49.1936 30.2669L49.7875 27.6075C49.3916 27.4549 48.8582 27.3131 48.1878 27.1831C47.5176 27.0534 46.817 26.9882 46.0857 26.9882C44.6237 26.9882 43.4731 27.3173 42.6354 27.9739C41.7977 28.6317 41.3787 29.5259 41.3787 30.6565C41.3787 31.2374 41.4623 31.7338 41.6304 32.1468C41.7977 32.5593 42.0339 32.9147 42.3383 33.2131C42.6433 33.5109 43.0124 33.7668 43.4467 33.9804C43.8806 34.1952 44.3644 34.4011 44.8974 34.5997C45.5834 34.8597 46.093 35.0927 46.4287 35.2993C46.7635 35.5052 46.9313 35.7459 46.9313 36.0214C46.9313 36.3729 46.8015 36.6099 46.5427 36.7323C46.2837 36.8543 45.8421 36.9153 45.2176 36.9153C44.6237 36.9153 44.0217 36.8506 43.4126 36.7204C42.8032 36.5907 42.2091 36.4107 41.6304 36.1816L41.0591 38.9557C41.3334 39.0781 41.8247 39.2306 42.5326 39.414C43.2411 39.5976 44.1281 39.6891 45.1945 39.6891C46.8246 39.6891 48.0853 39.3841 48.9762 38.7745C49.8675 38.1643 50.3129 37.2646 50.3129 36.0751C50.3129 35.572 50.2564 35.1293 50.1417 34.7483C50.0274 34.3672 49.8295 34.0201 49.5479 33.7073Z" fill="#606162"></path><path id="Fill 7" fill-rule="evenodd" clip-rule="evenodd" d="M57.9565 36.6513C57.5682 36.7203 57.1914 36.7547 56.8253 36.7547C56.0633 36.7547 55.557 36.5409 55.3062 36.1128C55.0547 35.6848 54.9291 35.1118 54.9291 34.3934V30.1521H59.0192V27.309H54.9291V23.7554L51.5244 24.3057V34.4388C51.5244 35.2183 51.5962 35.9292 51.7415 36.5711C51.886 37.2133 52.1411 37.76 52.5066 38.2106C52.8724 38.6615 53.3598 39.0127 53.9692 39.2653C54.5782 39.517 55.3475 39.6436 56.2768 39.6436C57.0081 39.6436 57.625 39.582 58.128 39.4602C58.6306 39.3379 59.0873 39.1927 59.499 39.0246L59.0192 36.3648C58.6993 36.4875 58.3451 36.583 57.9565 36.6513Z" fill="#606162"></path><path id="Fill 8" fill-rule="evenodd" clip-rule="evenodd" d="M67.9868 38.0502C67.5529 38.1957 67.0159 38.268 66.3758 38.268C65.5989 38.268 64.9397 38.1493 64.3996 37.9126C63.8587 37.6758 63.4169 37.3476 63.0745 36.9266C62.7318 36.5065 62.4837 36.0018 62.3313 35.4136C62.1787 34.8254 62.103 34.1799 62.103 33.4764C62.103 31.9177 62.4417 30.7135 63.1198 29.8651C63.7976 29.0172 64.7916 28.5932 66.1018 28.5932C66.7416 28.5932 67.2518 28.6392 67.6332 28.7305C68.0132 28.8223 68.3565 28.9449 68.6609 29.0975L69.0495 27.8137C68.7445 27.6456 68.3146 27.508 67.7584 27.4012C67.202 27.2941 66.6048 27.2407 65.9647 27.2407C65.127 27.2407 64.3726 27.3896 63.7024 27.6874C63.0319 27.9854 62.4606 28.4095 61.9887 28.9599C61.5164 29.5102 61.1549 30.1674 60.9034 30.9313C60.6523 31.6959 60.5264 32.5443 60.5264 33.4764C60.5264 34.3934 60.648 35.2303 60.8922 35.9869C61.1357 36.7432 61.4897 37.393 61.9543 37.9355C62.4192 38.4785 63.0015 38.895 63.7024 39.1851C64.403 39.4752 65.2109 39.6208 66.125 39.6208C66.7644 39.6208 67.3777 39.5478 67.964 39.4029C68.5499 39.2577 68.9811 39.1085 69.2551 38.9557L68.9352 37.6719C68.7372 37.779 68.421 37.9053 67.9868 38.0502Z" fill="#236092"></path><path id="Fill 9" fill-rule="evenodd" clip-rule="evenodd" d="M73.3226 37.8897C73.1854 37.7601 73.0824 37.5843 73.014 37.3622C72.9455 37.1414 72.9112 36.8463 72.9112 36.4799V21.5778L71.4258 21.8526V36.5254C71.4258 37.0913 71.4902 37.5611 71.6201 37.9355C71.7493 38.3101 71.94 38.6155 72.1914 38.8526C72.4426 39.0893 72.7543 39.2654 73.1283 39.3801C73.5011 39.4945 73.9395 39.5591 74.4419 39.5744L74.6474 38.3367C74.3424 38.2909 74.08 38.2375 73.8596 38.1759C73.6382 38.1155 73.4594 38.0194 73.3226 37.8897Z" fill="#236092"></path><path id="Fill 10" fill-rule="evenodd" clip-rule="evenodd" d="M83.5315 36.9839C82.8459 37.8552 81.9163 38.2909 80.7435 38.2909C79.5707 38.2909 78.6414 37.8552 77.9561 36.9839C77.2704 36.1129 76.9277 34.9362 76.9277 33.4535C76.9277 31.9711 77.2704 30.7901 77.9561 29.9111C78.6414 29.0328 79.5707 28.5932 80.7435 28.5932C81.9163 28.5932 82.8459 29.0328 83.5315 29.9111C84.2169 30.7901 84.5599 31.9711 84.5599 33.4535C84.5599 34.9362 84.2169 36.1129 83.5315 36.9839ZM84.6165 28.9483C84.1366 28.4061 83.5692 27.9854 82.9146 27.6874C82.259 27.3896 81.5356 27.2407 80.7435 27.2407C79.9514 27.2407 79.2277 27.3896 78.573 27.6874C77.9181 27.9854 77.3504 28.4061 76.8708 28.9483C76.3907 29.4913 76.017 30.1445 75.7512 30.9088C75.4843 31.6733 75.3511 32.5211 75.3511 33.4535C75.3511 34.3858 75.4843 35.2346 75.7512 35.9985C76.017 36.7627 76.3907 37.4119 76.8708 37.9471C77.3504 38.4822 77.9181 38.8983 78.573 39.1961C79.2277 39.4945 79.9514 39.6436 80.7435 39.6436C81.5356 39.6436 82.259 39.4945 82.9146 39.1961C83.5692 38.8983 84.1366 38.4822 84.6165 37.9471C85.0966 37.4119 85.4697 36.7627 85.7364 35.9985C86.0027 35.2346 86.1362 34.3858 86.1362 33.4535C86.1362 32.5211 86.0027 31.6733 85.7364 30.9088C85.4697 30.1445 85.0966 29.4913 84.6165 28.9483Z" fill="#236092"></path><path id="Fill 2" fill-rule="evenodd" clip-rule="evenodd" d="M2.05494 21.8071C1.50639 21.8071 1.03021 21.9868 0.626709 22.3459C0.222596 22.705 0.0209961 23.198 0.0209961 23.8243C0.0209961 24.4513 0.222596 24.9443 0.626709 25.3031C1.03021 25.6628 1.50639 25.8419 2.05494 25.8419C2.60318 25.8419 3.07875 25.6628 3.48286 25.3031C3.88637 24.9443 4.08827 24.4513 4.08827 23.8243C4.08827 23.198 3.88637 22.705 3.48286 22.3459C3.07875 21.9868 2.60318 21.8071 2.05494 21.8071Z" fill="#606162"></path><path id="Fill 3" fill-rule="evenodd" clip-rule="evenodd" d="M0.36377 39.3685H3.76817V27.3091H0.36377V39.3685Z" fill="#606162"></path><path id="Fill 4" fill-rule="evenodd" clip-rule="evenodd" d="M24.4315 29.2464C24.2251 29.9423 24.0107 30.6452 23.789 31.3554C23.5674 32.0663 23.3417 32.7582 23.1125 33.4309C22.8829 34.1033 22.6691 34.7144 22.4706 35.2645C22.2562 34.7144 22.0382 34.1033 21.8159 33.4309C21.5939 32.7582 21.372 32.0663 21.1503 31.3554C20.9286 30.6452 20.7142 29.9423 20.5078 29.2464C20.301 28.5511 20.121 27.9052 19.9687 27.3091H16.3584C17.0766 29.7244 17.8371 31.9558 18.6399 34.0036C19.4423 36.0519 20.2341 37.8403 21.0134 39.3685H23.8392C24.6182 37.8403 25.4091 36.0519 26.211 34.0036C27.0128 31.9558 27.773 29.7244 28.4912 27.3091H24.9703C24.8177 27.9052 24.6374 28.5511 24.4315 29.2464Z" fill="#606162"></path><path id="Fill 11" fill-rule="evenodd" clip-rule="evenodd" d="M101.122 9.45799C101.162 9.45433 101.207 9.45189 101.256 9.45037C101.305 9.44853 101.357 9.44762 101.412 9.44762C101.492 9.44762 101.568 9.45433 101.641 9.46806C101.714 9.48179 101.779 9.50376 101.835 9.53426C101.892 9.56477 101.937 9.60474 101.972 9.65416C102.007 9.70328 102.024 9.76369 102.024 9.83508C102.024 9.90982 102.008 9.97115 101.977 10.0184C101.947 10.066 101.903 10.1045 101.846 10.1331C101.79 10.1621 101.723 10.1817 101.647 10.192C101.57 10.2021 101.486 10.207 101.395 10.207H101.122V9.45799ZM101.122 10.4364H101.466C101.485 10.4364 101.504 10.4364 101.526 10.4364C101.548 10.4364 101.572 10.4349 101.598 10.4312C101.674 10.5163 101.763 10.631 101.866 10.7753C101.968 10.92 102.066 11.0719 102.161 11.2318H102.494C102.454 11.157 102.407 11.0752 102.352 10.9871C102.297 10.8986 102.243 10.8153 102.188 10.7372C102.133 10.6591 102.081 10.5886 102.032 10.5258C101.983 10.4629 101.944 10.416 101.915 10.3855C102.057 10.3379 102.164 10.2656 102.237 10.1688C102.31 10.0721 102.347 9.9623 102.347 9.83996C102.347 9.62609 102.265 9.46623 102.103 9.36128C101.941 9.25572 101.705 9.20325 101.396 9.20325C101.305 9.20325 101.207 9.20813 101.103 9.2182C100.999 9.22857 100.905 9.24199 100.821 9.25908V11.2318H101.122V10.4364Z" fill="#236092"></path><path id="Fill 12" fill-rule="evenodd" clip-rule="evenodd" d="M100.202 9.58033C100.273 9.3866 100.371 9.22094 100.496 9.08335C100.621 8.94575 100.771 8.83958 100.946 8.76453C101.12 8.68979 101.311 8.65257 101.517 8.65257C101.724 8.65257 101.914 8.68979 102.089 8.76453C102.263 8.83958 102.413 8.94575 102.539 9.08335C102.664 9.22094 102.762 9.3866 102.833 9.58033C102.904 9.77375 102.94 9.98792 102.94 10.2225C102.94 10.4568 102.904 10.671 102.833 10.8647C102.762 11.0582 102.664 11.2241 102.539 11.3614C102.413 11.499 102.263 11.6061 102.089 11.6827C101.914 11.7589 101.724 11.7974 101.517 11.7974C101.311 11.7974 101.12 11.7589 100.946 11.6827C100.771 11.6061 100.621 11.499 100.496 11.3614C100.371 11.2241 100.273 11.0582 100.202 10.8647C100.131 10.671 100.095 10.4568 100.095 10.2225C100.095 9.98792 100.131 9.77375 100.202 9.58033ZM100.316 11.5808C100.473 11.7388 100.656 11.8596 100.864 11.9426C101.072 12.0259 101.29 12.0674 101.517 12.0674C101.744 12.0674 101.962 12.0259 102.17 11.9426C102.378 11.8596 102.561 11.7388 102.719 11.5808C102.876 11.4227 103.002 11.2299 103.097 11.0023C103.192 10.7744 103.239 10.5148 103.239 10.2225C103.239 9.93362 103.192 9.6746 103.097 9.44518C103.002 9.21575 102.876 9.02294 102.719 8.86674C102.561 8.71053 102.378 8.59064 102.17 8.50735C101.962 8.42406 101.744 8.38257 101.517 8.38257C101.29 8.38257 101.072 8.42406 100.864 8.50735C100.656 8.59064 100.473 8.71053 100.316 8.86674C100.159 9.02294 100.032 9.21575 99.9375 9.44518C99.8424 9.6746 99.7949 9.93362 99.7949 10.2225C99.7949 10.5148 99.8424 10.7744 99.9375 11.0023C100.032 11.2299 100.159 11.4227 100.316 11.5808Z" fill="#236092"></path><path id="Fill 13" fill-rule="evenodd" clip-rule="evenodd" d="M106.751 37.9699C106.522 38.0465 106.183 38.1188 105.733 38.1877C105.284 38.2564 104.694 38.2909 103.963 38.2909C102.684 38.2909 101.655 37.8744 100.879 37.0415C100.101 36.208 99.7128 35.0124 99.7128 33.4534C99.7128 32.7963 99.781 32.1739 99.9181 31.5848C100.056 30.9969 100.276 30.4846 100.581 30.049C100.886 29.6133 101.286 29.2655 101.781 29.0056C102.276 28.7457 102.889 28.616 103.62 28.616C103.971 28.616 104.306 28.6502 104.626 28.7191C104.946 28.7878 105.243 28.8759 105.517 28.9827C105.791 29.0901 106.031 29.2048 106.237 29.3262C106.443 29.4492 106.613 29.5639 106.751 29.6707V37.9699ZM106.751 21.8529V28.2261C106.492 28.0281 106.077 27.8173 105.505 27.5958C104.934 27.3746 104.26 27.2636 103.483 27.2636C102.63 27.2636 101.872 27.4164 101.21 27.7221C100.547 28.0281 99.9871 28.4555 99.5304 29.0056C99.0734 29.5557 98.7267 30.2095 98.4905 30.9661C98.2545 31.7224 98.1362 32.5519 98.1362 33.4534C98.1362 34.4163 98.277 35.28 98.5595 36.0439C98.8408 36.8084 99.2367 37.458 99.7472 37.9928C100.257 38.5279 100.867 38.9367 101.575 39.2195C102.283 39.5017 103.072 39.6436 103.94 39.6436C104.991 39.6436 105.86 39.5743 106.545 39.4367C106.64 39.4181 106.714 39.3974 106.804 39.3782L108.236 39.6436V21.5774L106.751 21.8529Z" fill="#236092"></path><path id="Fill 14" fill-rule="evenodd" clip-rule="evenodd" d="M95.2347 27.5153V37.9235C95.0975 37.9855 94.7701 38.0541 94.2522 38.1307C93.7347 38.207 93.1247 38.2451 92.4241 38.2451C91.7993 38.2451 91.2705 38.1649 90.8363 38.0041C90.4021 37.8433 90.0478 37.5843 89.7732 37.2246C89.4993 36.8658 89.301 36.3957 89.1797 35.8145C89.0577 35.2342 88.9966 34.5234 88.9966 33.6822V27.5153H87.5112V34.1637C87.5112 34.9743 87.5912 35.7156 87.7511 36.3877C87.9111 37.0608 88.1741 37.6334 88.5399 38.1078C88.9051 38.5813 89.3852 38.9483 89.9794 39.2079C90.5735 39.4679 91.3124 39.5975 92.1955 39.5975C93.2771 39.5975 94.1914 39.521 94.9379 39.3684C95.0419 39.3471 95.1365 39.3266 95.2347 39.3059V39.3684L96.7198 39.6436V27.5153H95.2347Z" fill="#236092"></path><path id="Fill 15" fill-rule="evenodd" clip-rule="evenodd" d="M15.7415 30.3126C15.5737 29.6399 15.2918 29.0593 14.8959 28.57C14.5 28.0812 13.9627 27.7026 13.2849 27.4351C12.6072 27.1678 11.7576 27.0342 10.7374 27.0342C9.73215 27.0342 8.7725 27.1068 7.85845 27.2517C7.66445 27.2828 7.48262 27.3146 7.30352 27.346L5.61865 27.0342V39.3685H9.02336V30.0603C9.23681 30.0298 9.48038 30.0027 9.75465 29.9798C10.0292 29.9572 10.288 29.9459 10.5313 29.9459C11.324 29.9459 11.8643 30.175 12.1541 30.6336C12.443 31.0918 12.588 31.8713 12.588 32.9723V39.3685H15.993V32.5593C15.993 31.734 15.9088 30.9853 15.7415 30.3126Z" fill="#606162"></path></g></svg>